USFL
nRows=126
nColumns=2
inDegrees=yes
endheader
time	soleus_r	
2.3619	 37.423513	
2.43347	 37.175956	
2.50504	 37.398834	
2.57661	 37.430346	
2.64819	 37.529791	
2.71976	 37.301766	
2.79133	 37.331741	
2.8629	 37.298124	
2.93448	 37.333108	
3.00605	 37.530710	
3.07762	 37.346789	
3.14919	 37.477587	
3.22077	 37.741343	
3.29234	 37.204256	
3.36391	 37.300911	
3.43548	 37.209040	
3.50706	 37.003870	
3.57863	 36.897211	
3.6502	 36.861651	
3.72177	 37.110225	
3.79335	 37.162551	
3.86492	 37.200392	
3.93649	 37.497949	
4.00806	 37.580793	
4.07964	 37.502759	
4.15121	 37.600644	
4.22278	 37.295265	
4.29435	 37.344643	
4.36593	 37.371047	
4.4375	 37.546146	
4.50907	 37.380551	
4.58065	 37.326734	
4.65222	 37.253153	
4.72379	 38.611738	
4.79536	 39.350837	
4.86694	 39.002683	
4.93851	 31.325662	
5.01008	 27.569046	
5.08165	 27.130728	
5.15323	 26.661250	
5.2248	 24.474726	
5.29637	 24.041993	
5.36794	 23.748794	
5.43952	 23.726359	
5.51109	 23.495788	
5.58266	 22.861610	
5.65423	 22.834523	
5.72581	 22.755064	
5.79738	 22.842219	
5.86895	 22.987208	
5.94052	 23.257574	
6.0121	 23.603831	
6.08367	 22.825723	
6.15524	 23.135441	
6.22681	 22.992701	
6.29839	 22.992609	
6.36996	 22.861572	
6.44153	 22.810088	
6.5131	 22.793024	
6.58468	 22.506840	
6.65625	 22.701323	
6.72782	 22.511039	
6.7994	 22.734769	
6.87097	 22.967473	
6.94254	 22.421159	
7.01411	 22.225113	
7.08569	 22.416978	
7.15726	 22.206935	
7.22883	 22.130694	
7.3004	 21.666035	
7.37198	 21.323582	
7.44355	 20.657467	
7.51512	 20.735083	
7.58669	 21.208353	
7.65827	 20.494282	
7.72984	 21.146158	
7.80141	 20.900275	
7.87298	 21.447081	
7.94456	 21.694436	
8.01613	 21.650929	
8.0877	 21.558237	
8.15927	 21.057533	
8.23085	 19.749929	
8.30242	 19.898978	
8.37399	 19.316215	
8.44556	 18.507685	
8.51714	 17.111141	
8.58871	 17.814107	
8.66028	 17.368596	
8.73185	 17.175304	
8.80343	 20.629987	
8.875	 21.534470	
8.94657	 21.266718	
9.01815	 20.499144	
9.08972	 21.791626	
9.16129	 20.770722	
9.23286	 20.922285	
9.30444	 21.266122	
9.37601	 21.463941	
9.44758	 21.587742	
9.51915	 22.268314	
9.59073	 22.518392	
9.6623	 20.960854	
9.73387	 20.594125	
9.80544	 21.309242	
9.87702	 21.351239	
9.94859	 21.749588	
10.0202	 21.926233	
10.0917	 21.384421	
10.1633	 21.325845	
10.2349	 25.047777	
10.3065	 25.043922	
10.378	 24.561010	
10.4496	 31.372555	
10.5212	 30.906348	
10.5927	 30.790388	
10.6643	 31.607305	
10.7359	 31.474860	
10.8075	 32.114789	
10.879	 31.900882	
10.9506	 30.930880	
11.0222	 31.343412	
11.0937	 32.457861	
11.1653	 32.056075	
11.2369	 32.245368	
11.3085	 33.025197	
